<svg width="24" height="24" viewBox="0 0 24 24" fill="none" xmlns="http://www.w3.org/2000/svg">
<g clip-path="url(#clip0)">
<path d="M7.663 21H16.337C17.1605 20.6025 17.92 20.098 18.599 19.5H5.401C6.08 20.098 6.8395 20.6025 7.663 21Z" fill="#D4290D"/>
<path d="M13.5 12H22C22 11.489 21.9495 10.9905 21.8755 10.5H13.5V12Z" fill="#D4290D"/>
<path d="M13.5 9.00003H21.541C21.3775 8.47903 21.1645 7.98053 20.9215 7.50003H13.5V9.00003Z" fill="#D4290D"/>
<path d="M16.337 3.00001C15.455 2.57401 14.503 2.27601 13.5 2.12451V3.00001H16.337Z" fill="#D4290D"/>
<path d="M2.12451 13.5C2.20201 14.0125 2.30701 14.516 2.45901 15H21.5405C21.6925 14.516 21.798 14.0125 21.875 13.5H13.5H2.12451Z" fill="#D4290D"/>
<path d="M4.01349 18H19.9865C20.3405 17.53 20.654 17.0295 20.9215 16.5H3.07849C3.34599 17.0295 3.65999 17.53 4.01349 18Z" fill="#D4290D"/>
<path d="M13.5 6H19.9865C19.5755 5.4535 19.1115 4.951 18.599 4.5H13.5V6Z" fill="#D4290D"/>
<path d="M12 22C13.556 22 15.0235 21.634 16.337 21H7.66296C8.97646 21.634 10.444 22 12 22Z" fill="white"/>
<path d="M5.40105 19.5H18.5991C19.1116 19.049 19.575 18.5465 19.9865 18H4.01355C4.42455 18.5465 4.88855 19.049 5.40105 19.5Z" fill="white"/>
<path d="M3.07848 16.5H20.9215C21.1645 16.0195 21.377 15.521 21.541 15H2.45898C2.62298 15.521 2.83548 16.0195 3.07848 16.5Z" fill="white"/>
<path d="M13.5 13.5H21.8755C21.9495 13.0095 22 12.511 22 12H13.5V13.5Z" fill="white"/>
<path d="M13.5 10.5H21.8755C21.798 9.98747 21.693 9.48397 21.541 8.99997H13.5V10.5Z" fill="white"/>
<path d="M13.5 7.50003H20.9215C20.654 6.97053 20.34 6.47003 19.9865 6.00003H13.5V7.50003Z" fill="white"/>
<path d="M13.5 2.99997V4.49997H18.599C17.92 3.90197 17.1605 3.39747 16.337 2.99997H13.5Z" fill="white"/>
<path d="M13.5 12V10.5V9V7.5V6V4.5V3V2.1245C13.0095 2.0505 12.511 2 12 2C6.477 2 2 6.477 2 12C2 12.511 2.0505 13.0095 2.1245 13.5H13.5V12Z" fill="#2D4D84"/>
<path d="M7.01 5.53497C5.348 5.53497 4 6.87897 4 8.53497C4 10.191 5.3475 11.535 7.01 11.535C7.6115 11.535 8.17 11.359 8.639 11.0565C8.3655 11.152 8.0725 11.203 7.768 11.203C6.293 11.203 5 9.96897 5 8.49997C5 7.03097 6.293 5.88297 7.7655 5.88297C8.0915 5.88297 8.404 5.94147 8.693 6.04897C8.213 5.72447 7.633 5.53497 7.01 5.53497Z" fill="#FFD600"/>
<path d="M12.502 10.0605L11.2345 9.40053L11.6095 10.754L10.762 9.62103L10.496 11L10.236 9.62103L9.3845 10.752L9.7635 9.39853L8.494 10.0565L9.4375 8.99803L8 9.05253L9.3205 8.49803L8.002 7.93953L9.4395 7.99803L8.498 6.93753L9.7655 7.59953L9.3905 6.24603L10.24 7.37903L10.504 6.00003L10.764 7.37903L11.6155 6.24803L11.2365 7.60153L12.506 6.94353L11.5625 8.00203L13 7.94753L11.6795 8.50203L12.998 9.06053L11.5605 9.00203L12.502 10.0605Z" fill="#FFD600"/>
</g>
<defs>
<clipPath id="clip0">
<rect width="20" height="20" fill="white" transform="translate(2 2)"/>
</clipPath>
</defs>
</svg>
