<svg width="24" height="24" viewBox="0 0 24 24" fill="none" xmlns="http://www.w3.org/2000/svg">
<path d="M12 2C6.477 2 2 6.477 2 12H22C22 6.477 17.523 2 12 2Z" fill="#D4290D"/>
<path d="M22 12H2C2 17.523 6.477 22 12 22C17.523 22 22 17.523 22 12Z" fill="#ECEFF1"/>
<path d="M9.3105 10.344C9.0115 10.4475 8.6935 10.5 8.3575 10.5C6.781 10.5 5.5 9.27153 5.5 7.75003C5.5 6.22853 6.781 5.00003 8.3575 5.00003C8.6935 5.00003 9.012 5.05253 9.3105 5.15653C7.867 5.20553 6.7165 6.35003 6.7165 7.75053C6.7165 9.15103 7.867 10.295 9.3105 10.344Z" fill="#ECEFF1"/>
<path d="M8.713 7.81651L8.3245 7.52951L7.938 7.81651L8.0865 7.35551L7.698 7.07051H8.1785L8.325 6.60751L8.4735 7.07051H8.954L8.5655 7.35551L8.713 7.81651Z" fill="#ECEFF1"/>
<path d="M11.76 7.81651L11.3715 7.52951L10.985 7.81651L11.1335 7.35551L10.745 7.07051H11.2255L11.372 6.60751L11.5205 7.07051L12 7.06851L11.6115 7.35351L11.76 7.81651Z" fill="#ECEFF1"/>
<path d="M10.2385 6.7285L9.85001 6.4415L9.46351 6.7285L9.61201 6.2655L9.22351 5.9825H9.70401L9.85051 5.5195L9.99901 5.9825H10.4795L10.089 6.2655L10.2385 6.7285Z" fill="#ECEFF1"/>
<path d="M9.28294 9.55647L8.89444 9.26947L8.50794 9.55647L8.65644 9.09547L8.26794 8.81047H8.74844L8.89494 8.34747L9.04344 8.81047H9.52394L9.13344 9.09547L9.28294 9.55647Z" fill="#ECEFF1"/>
<path d="M11.1896 9.55647L10.8011 9.26947L10.4146 9.55647L10.5631 9.09547L10.1746 8.81047H10.6551L10.8016 8.34747L10.9501 8.81047H11.4306L11.0401 9.09547L11.1896 9.55647Z" fill="#ECEFF1"/>
</svg>
