<svg width="24" height="24" viewBox="0 0 24 24" fill="none" xmlns="http://www.w3.org/2000/svg">
<path d="M12 2C9.204 2 6.679 3.1505 4.8645 5H19.136C17.321 3.1505 14.796 2 12 2Z" fill="#D4290D"/>
<path d="M19.1355 19H4.8645C6.679 20.8495 9.204 22 12 22C14.796 22 17.321 20.8495 19.1355 19Z" fill="#D4290D"/>
<path d="M21.358 15.5H2.64197C3.13647 16.821 3.89447 18.012 4.86397 19H19.1355C20.105 18.012 20.8635 16.821 21.358 15.5Z" fill="white"/>
<path d="M19.1355 5.00003H4.86446C3.89496 5.98803 3.13696 7.17903 2.64246 8.50003H21.358C20.8635 7.17903 20.105 5.98803 19.1355 5.00003Z" fill="white"/>
<path d="M22 12C22 10.7665 21.766 9.59103 21.358 8.50003H2.642C2.234 9.59103 2 10.7665 2 12C2 13.2335 2.234 14.409 2.642 15.5H21.3575C21.766 14.409 22 13.2335 22 12Z" fill="#2D4D84"/>
</svg>
